<svg width="500" height="500" viewBox="0 0 500 500" fill="none" xmlns="http://www.w3.org/2000/svg">
<g clip-path="url(#clip0_716_3)">
<rect width="500" height="500" fill="#1E3A8A"/>
<path d="M150 150V175H125V300H100V325H75V350H0V500H175V475H200V425H225V450H250V400H200V325H300V300H225V250H350V175H325V150H150Z" fill="white"/>
<rect x="175" y="175" width="25" height="25" fill="#001E6B"/>
<path d="M20 38V-26H71.2V25.2H109.6V-26H160.8V102H109.6V50.8H32.8V38H20ZM301.5 89.2V102H186.3V89.2H173.5V-13.2H186.3V-26H301.5V-13.2H314.3V89.2H301.5ZM263.1 50.8V25.2V-0.400002H224.7V76.4H263.1V50.8ZM327 38V-26H378.2V25.2H416.6V-26H467.8V102H416.6V50.8H339.8V38H327ZM20 188V124H71.2V175.2H109.6V124H160.8V252H109.6V200.8H32.8V188H20ZM301.5 239.2V252H186.3V239.2H173.5V136.8H186.3V124H301.5V136.8H314.3V239.2H301.5ZM263.1 200.8V175.2V149.6H224.7V226.4H263.1V200.8ZM327 188V124H378.2V175.2H416.6V124H467.8V252H416.6V200.8H339.8V188H327ZM20 338V274H71.2V325.2H109.6V274H160.8V402H109.6V350.8H32.8V338H20ZM301.5 389.2V402H186.3V389.2H173.5V286.8H186.3V274H301.5V286.8H314.3V389.2H301.5ZM263.1 350.8V325.2V299.6H224.7V376.4H263.1V350.8ZM327 338V274H378.2V325.2H416.6V274H467.8V402H416.6V350.8H339.8V338H327ZM20 488V424H71.2V475.2H109.6V424H160.8V552H109.6V500.8H32.8V488H20ZM301.5 539.2V552H186.3V539.2H173.5V436.8H186.3V424H301.5V436.8H314.3V539.2H301.5ZM263.1 500.8V475.2V449.6H224.7V526.4H263.1V500.8ZM327 488V424H378.2V475.2H416.6V424H467.8V552H416.6V500.8H339.8V488H327Z" fill="white" fill-opacity="0.1"/>
</g>
<defs>
<clipPath id="clip0_716_3">
<rect width="500" height="500" fill="white"/>
</clipPath>
</defs>
</svg>
